<?xml version="1.0" encoding="UTF-8" standalone="no"?>
<!-- Created with Inkscape (http://www.inkscape.org/) -->

<svg
   xmlns:dc="http://purl.org/dc/elements/1.1/"
   xmlns:cc="http://creativecommons.org/ns#"
   xmlns:rdf="http://www.w3.org/1999/02/22-rdf-syntax-ns#"
   xmlns:svg="http://www.w3.org/2000/svg"
   xmlns="http://www.w3.org/2000/svg"
   version="1.1"
   width="123.75"
   height="47.5"
   id="svg3004"
   xml:space="preserve"><metadata
     id="metadata3010"><rdf:RDF><cc:Work
         rdf:about=""><dc:format>image/svg+xml</dc:format><dc:type
           rdf:resource="http://purl.org/dc/dcmitype/StillImage" /><dc:title></dc:title></cc:Work></rdf:RDF></metadata><defs
     id="defs3008"><clipPath
       id="clipPath3020"><path
         d="m 0.06,37.873 98.884,0 0,-37.873 -98.884,0 0,37.873 z"
         id="path3022" /></clipPath><clipPath
       id="clipPath3026"><path
         d="M 0,0 99,0 99,38 0,38 0,0 z"
         id="path3028" /></clipPath><clipPath
       id="clipPath3038"><path
         d="M 0,0 99,0 99,38 0,38 0,0 z"
         id="path3040" /></clipPath></defs><g
     transform="matrix(1.25,0,0,-1.25,0,47.5)"
     id="g3012"><g
       id="g3014" /><g
       id="g3016"><g
         clip-path="url(#clipPath3020)"
         id="g3018"><g
           clip-path="url(#clipPath3026)"
           id="g3024"><path
             d="m 83.929,16.422 c 0.334,-0.248 0.801,-0.251 1.141,0.021 0.4,0.322 0.461,0.909 0.14,1.308 -0.186,0.231 -0.353,0.45 -0.593,0.69 -0.223,0.244 -0.45,0.453 -0.678,0.676 -0.473,0.421 -0.975,0.811 -1.507,1.16 -1.071,0.696 -2.254,1.223 -3.49,1.573 -0.618,0.165 -1.249,0.294 -1.885,0.375 -0.326,0.035 -0.621,0.058 -0.976,0.075 l -0.437,0.015 -0.502,-0.011 c -0.659,-0.025 -1.286,-0.095 -1.914,-0.221 -0.214,-0.048 -0.424,-0.105 -0.635,-0.158 -0.323,1.659 -0.883,3.288 -1.65,4.823 -0.472,0.955 -1.043,1.863 -1.667,2.734 -0.622,0.874 -1.332,1.688 -2.098,2.447 -1.521,1.531 -3.31,2.806 -5.259,3.778 -1.94,0.99 -4.063,1.613 -6.215,1.946 -0.539,0.082 -1.08,0.138 -1.623,0.184 l -1.558,0.036 c -0.568,-0.025 -1.147,-0.048 -1.711,-0.086 -0.541,-0.069 -1.083,-0.126 -1.622,-0.211 -1.076,-0.185 -2.129,-0.472 -3.157,-0.824 -1.023,-0.367 -2.032,-0.776 -2.973,-1.31 -0.474,-0.263 -0.947,-0.524 -1.389,-0.833 -0.458,-0.289 -0.9,-0.594 -1.322,-0.93 -0.432,-0.322 -0.833,-0.678 -1.227,-1.042 -0.406,-0.35 -0.771,-0.743 -1.14,-1.127 -0.727,-0.782 -1.374,-1.63 -1.961,-2.509 -0.292,-0.44 -0.538,-0.91 -0.807,-1.359 -0.049,-0.097 -0.09,-0.195 -0.137,-0.293 l -0.556,0.347 c -0.563,0.31 -1.14,0.603 -1.743,0.842 -0.6,0.238 -1.216,0.45 -1.848,0.603 -0.63,0.157 -1.27,0.295 -1.918,0.358 l -0.484,0.058 -0.482,0.033 c -0.275,0.024 -0.646,0.027 -0.98,0.032 -0.661,-0.015 -1.309,-0.052 -1.958,-0.143 -1.299,-0.156 -2.566,-0.523 -3.784,-0.992 -2.425,-0.967 -4.593,-2.537 -6.267,-4.502 -0.826,-0.992 -1.551,-2.063 -2.098,-3.222 -0.281,-0.575 -0.52,-1.167 -0.728,-1.767 -0.218,-0.598 -0.36,-1.219 -0.492,-1.833 -0.098,-0.45 0.141,-0.917 0.582,-1.095 0.494,-0.195 1.051,0.043 1.249,0.536 l 0.015,0.04 c 0.413,1.034 0.878,2.035 1.483,2.946 0.595,0.916 1.272,1.765 2.035,2.528 1.52,1.529 3.36,2.702 5.349,3.439 0.997,0.366 2.033,0.61 3.08,0.753 0.522,0.08 1.057,0.111 1.579,0.127 0.257,10e-4 0.478,0.021 0.794,0.007 l 0.405,-0.011 0.398,-0.029 c 0.531,-0.035 1.061,-0.098 1.588,-0.188 0.524,-0.09 1.048,-0.208 1.567,-0.345 0.518,-0.146 1.033,-0.309 1.542,-0.499 0.508,-0.194 1.01,-0.411 1.514,-0.64 l 0.001,0 0.795,-0.61 0.776,1.009 c 0.571,0.742 1.152,1.458 1.783,2.122 0.631,0.662 1.288,1.291 1.994,1.855 0.351,0.284 0.692,0.574 1.071,0.822 0.362,0.263 0.731,0.515 1.121,0.735 0.37,0.249 0.76,0.466 1.153,0.669 0.386,0.222 0.793,0.397 1.198,0.578 0.81,0.352 1.635,0.664 2.48,0.908 0.418,0.134 0.853,0.208 1.277,0.316 0.429,0.092 0.864,0.142 1.292,0.231 0.434,0.059 0.87,0.093 1.303,0.145 l 1.235,0.048 1.391,-0.054 c 0.436,-0.032 0.87,-0.069 1.305,-0.128 1.738,-0.227 3.423,-0.744 5.031,-1.441 1.604,-0.712 3.104,-1.672 4.465,-2.811 0.677,-0.574 1.31,-1.202 1.915,-1.863 0.604,-0.662 1.147,-1.381 1.66,-2.126 1.021,-1.495 1.83,-3.149 2.453,-4.906 l 0.425,-1.197 0.97,0.37 c 0.532,0.082 1.055,0.17 1.582,0.204 0.262,0.024 0.526,0.042 0.787,0.048 0.258,0.011 0.531,0.016 0.775,0.008 l 0.37,-0.01 0.437,-0.024 c 0.224,-0.019 0.51,-0.047 0.762,-0.082 0.518,-0.055 1.03,-0.165 1.538,-0.281 0.507,-0.12 1.004,-0.284 1.499,-0.458 0.49,-0.184 0.97,-0.4 1.444,-0.63 0.47,-0.245 0.931,-0.505 1.382,-0.795 0.221,-0.148 0.453,-0.294 0.658,-0.446 0.199,-0.139 0.441,-0.336 0.674,-0.508 l 0.008,-0.008"
             id="path3030"
             style="fill:#244483;fill-opacity:1;fill-rule:nonzero;stroke:none" /><path
             d="M 0.527,3.012 C 1.781,2.506 3.21,2.264 4.859,2.264 c 1.232,0 1.847,0.396 1.847,1.166 0,0.725 -0.417,1.077 -1.231,1.077 l -2.044,0 C 1.144,4.507 0,5.65 0,7.937 c 0,2.374 1.671,3.562 5.014,3.562 1.407,0 2.748,-0.22 4.001,-0.659 l 0,-2.354 C 7.762,8.992 6.398,9.234 4.926,9.234 3.386,9.234 2.616,8.838 2.616,8.047 2.616,7.321 3.057,6.97 3.958,6.97 l 1.825,0 c 2.506,0 3.76,-1.144 3.76,-3.431 C 9.543,1.187 7.937,0 4.749,0 3.188,0 1.781,0.219 0.527,0.637 l 0,2.375"
             id="path3032"
             style="fill:#244483;fill-opacity:1;fill-rule:nonzero;stroke:none" /></g></g></g><g
       id="g3034"><g
         clip-path="url(#clipPath3038)"
         id="g3036"><path
           d="m 11.524,13.215 2.112,0 0.418,-1.826 2.616,0 0,-2.264 -2.309,0 0,-5.189 c 0,-1.034 0.462,-1.562 1.364,-1.562 l 0.945,0 0,-2.265 -2.309,0 c -1.89,0 -2.837,1.012 -2.837,3.034 l 0,10.072"
           id="path3042"
           style="fill:#244483;fill-opacity:1;fill-rule:nonzero;stroke:none" /><path
           d="m 18.825,0.109 0,11.28 2.199,0 0.352,-1.452 c 0.989,0.968 2.045,1.452 3.145,1.452 l 0,-2.309 c -1.056,0 -2.001,-0.483 -2.859,-1.429 l 0,-7.542 -2.837,0"
           id="path3044"
           style="fill:#244483;fill-opacity:1;fill-rule:nonzero;stroke:none" /><path
           d="m 28.437,3.649 c 0,-0.857 0.571,-1.275 1.714,-1.275 1.165,0 2.133,0.286 2.947,0.88 l 0,1.473 c -0.704,0.154 -1.583,0.22 -2.617,0.22 -1.363,0 -2.044,-0.44 -2.044,-1.298 z m 2.044,3.431 c 0.99,0 1.847,-0.066 2.617,-0.198 l 0,0.725 c 0,1.012 -0.968,1.518 -2.925,1.518 -1.232,0 -2.462,-0.176 -3.672,-0.528 l 0,2.243 c 1.21,0.373 2.44,0.549 3.672,0.549 3.848,0 5.783,-1.231 5.783,-3.715 l 0,-7.565 -1.451,0 -1.209,0.791 c -0.99,-0.527 -2.023,-0.791 -3.145,-0.791 -3.034,0 -4.551,1.166 -4.551,3.518 0,2.308 1.627,3.453 4.881,3.453"
           id="path3046"
           style="fill:#244483;fill-opacity:1;fill-rule:nonzero;stroke:none" /><path
           d="m 38.642,13.215 2.111,0 0.418,-1.826 2.616,0 0,-2.264 -2.308,0 0,-5.189 c 0,-1.034 0.461,-1.562 1.363,-1.562 l 0.945,0 0,-2.265 -2.308,0 c -1.891,0 -2.837,1.012 -2.837,3.034 l 0,10.072"
           id="path3048"
           style="fill:#244483;fill-opacity:1;fill-rule:nonzero;stroke:none" /><path
           d="m 56.519,11.389 0,-11.28 -2.221,0 -0.352,1.43 c -1.363,-0.945 -2.726,-1.43 -4.111,-1.43 -2.595,0 -3.893,1.408 -3.893,4.2 l 0,7.08 2.837,0 0,-7.123 c 0,-1.254 0.616,-1.87 1.847,-1.87 0.989,0 2.023,0.484 3.057,1.429 l 0,7.564 2.836,0"
           id="path3050"
           style="fill:#244483;fill-opacity:1;fill-rule:nonzero;stroke:none" /><path
           d="m 59.205,3.012 c 1.254,-0.506 2.683,-0.748 4.332,-0.748 1.232,0 1.847,0.396 1.847,1.166 0,0.725 -0.417,1.077 -1.232,1.077 l -2.044,0 c -2.287,0 -3.43,1.143 -3.43,3.43 0,2.374 1.671,3.562 5.013,3.562 1.408,0 2.748,-0.22 4.001,-0.659 l 0,-2.354 c -1.253,0.506 -2.616,0.748 -4.088,0.748 -1.541,0 -2.31,-0.396 -2.31,-1.187 0,-0.726 0.44,-1.077 1.342,-1.077 l 1.825,0 c 2.506,0 3.76,-1.144 3.76,-3.431 C 68.221,1.187 66.615,0 63.427,0 61.866,0 60.459,0.219 59.205,0.637 l 0,2.375"
           id="path3052"
           style="fill:#244483;fill-opacity:1;fill-rule:nonzero;stroke:none" /><path
           d="m 70.201,15.457 2.837,0 0,-15.348 -2.837,0 0,15.348 z"
           id="path3054"
           style="fill:#244483;fill-opacity:1;fill-rule:nonzero;stroke:none" /><path
           d="m 78.031,3.649 c 0,-0.857 0.572,-1.275 1.715,-1.275 1.165,0 2.133,0.286 2.946,0.88 l 0,1.473 c -0.704,0.154 -1.583,0.22 -2.616,0.22 -1.363,0 -2.045,-0.44 -2.045,-1.298 z m 2.045,3.431 c 0.989,0 1.847,-0.066 2.616,-0.198 l 0,0.725 c 0,1.012 -0.967,1.518 -2.924,1.518 -1.232,0 -2.462,-0.176 -3.672,-0.528 l 0,2.243 c 1.21,0.373 2.44,0.549 3.672,0.549 3.848,0 5.783,-1.231 5.783,-3.715 l 0,-7.565 -1.451,0 L 82.891,0.9 C 81.9,0.373 80.867,0.109 79.746,0.109 c -3.034,0 -4.552,1.166 -4.552,3.518 0,2.308 1.627,3.453 4.882,3.453"
           id="path3056"
           style="fill:#244483;fill-opacity:1;fill-rule:nonzero;stroke:none" /><path
           d="m 91.072,2.726 c 0.659,-0.22 1.408,-0.33 2.265,-0.33 1.869,0 2.793,1.209 2.793,3.65 0,1.979 -0.815,2.969 -2.419,2.969 -0.968,0 -1.847,-0.199 -2.639,-0.572 l 0,-5.717 z m -2.837,12.731 2.837,0 0,-4.617 c 0.858,0.373 1.738,0.549 2.639,0.549 3.496,0 5.233,-1.803 5.233,-5.409 0,-3.914 -1.913,-5.871 -5.716,-5.871 -1.541,0 -3.211,0.155 -4.993,0.462 l 0,14.886"
           id="path3058"
           style="fill:#244483;fill-opacity:1;fill-rule:nonzero;stroke:none" /></g></g></g></svg>